Patient4_TMGait_0pt6_01_right_37_GRF.mot
version=1
nRows=26
nColumns=19
inDegrees=no
endheader
time	F1x	F1y	F1z	M1x	M1y	M1z	F2x	F2y	F2z	M2x	M2y	M2z	EC1x	EC1y	EC1z	EC2x	EC2y	EC2z
44.45	2.4502	691.5888	35.1423	-232.0587	-27.1285	643.5382	1.3736	4.4649	-1.6417	1.8334	2.0752	4.4722	-0.0592	0.0182	-0.0073	-0.0462	0.0165	0.9585
44.4625	6.133	693.6344	39.5406	-233.4291	-30.9061	648.746	1.0238	3.338	-1.078	1.4188	1.4012	3.2734	-0.0592	0.0182	-0.0073	-0.0462	0.0165	0.9585
44.475	9.9255	698.2192	42.8437	-235.7732	-33.3869	654.4238	0.64209	2.509	-0.64281	1.1118	0.87284	2.4414	-0.0592	0.0182	-0.0073	-0.0462	0.0165	0.9585
44.4875	13.6646	705.5697	44.965	-239.1427	-34.5075	660.6307	0.26645	1.9971	-0.33892	0.91803	0.51216	1.9875	-0.0592	0.0182	-0.0073	-0.0462	0.0165	0.9585
44.5	17.3068	715.3807	45.9621	-243.4061	-34.3585	667.2584	-0.027197	1.7259	-0.14253	0.81441	0.28891	1.7815	-0.0592	0.0182	-0.0073	-0.0462	0.0165	0.9585
44.5125	20.8146	726.8616	46.1673	-248.25	-33.3021	673.9499	-0.27985	1.6493	-0.030019	0.77895	0.1846	1.7853	-0.0592	0.0182	-0.0073	-0.0462	0.0165	0.9585
44.525	24.1826	738.8501	45.861	-253.2355	-31.6459	680.0439	-0.44363	1.6594	0.024879	0.77545	0.15071	1.8518	-0.0592	0.0182	-0.0073	-0.0462	0.0165	0.9585
44.5375	27.418	750.0552	45.4277	-257.8719	-29.7841	684.7673	-0.58143	1.6881	0.040022	0.77168	0.1723	1.9359	-0.0592	0.0182	-0.0073	-0.0462	0.0165	0.9585
44.55	30.5808	759.3076	45.1061	-261.7173	-27.9556	687.3851	-0.66768	1.6096	0.036145	0.7198	0.21447	1.8813	-0.0592	0.0182	-0.0073	-0.0462	0.0165	0.9585
44.5625	33.6786	765.7593	45.1243	-264.4482	-26.3952	687.4023	-0.74863	1.3286	0.017821	0.57541	0.28015	1.6036	-0.0592	0.0182	-0.0073	-0.0462	0.0165	0.9585
44.575	36.7446	769.0545	45.536	-265.9246	-25.1735	684.6915	-0.80596	0.71241	-0.0056142	0.28566	0.34949	0.94351	-0.0592	0.0182	-0.0073	-0.0462	0.0165	0.9585
44.5875	39.7704	769.3505	46.3659	-266.1886	-24.3391	679.565	-0.84684	-0.34531	-0.029985	-0.19505	0.40851	-0.21329	-0.0592	0.0182	-0.0073	-0.0462	0.0165	0.9585
44.6	42.747	767.2179	47.5457	-265.4366	-23.8519	672.6384	-0.84362	-1.9225	-0.046782	-0.89796	0.4291	-1.9573	-0.0592	0.0182	-0.0073	-0.0462	0.0165	0.9585
44.6125	45.5812	763.5107	49.0269	-263.9618	-23.7036	664.7618	-0.74505	-4.0236	-0.050346	-1.8219	0.37935	-4.2986	-0.0592	0.0182	-0.0073	-0.0462	0.0165	0.9585
44.625	48.1968	759.1493	50.7305	-262.0815	-23.8534	656.7972	-0.51706	-6.5018	-0.024555	-2.9029	0.2224	-7.0692	-0.0592	0.0182	-0.0073	-0.0462	0.0165	0.9585
44.6375	50.452	754.9533	52.5919	-260.0763	-24.2842	649.5128	-0.064068	-9.0155	0.039863	-3.9893	-0.084876	-9.9075	-0.0592	0.0182	-0.0073	-0.0462	0.0165	0.9585
44.65	52.2464	751.5018	54.5359	-258.1488	-24.9616	643.4196	0.64761	-10.8856	0.1643	-4.7888	-0.57911	-12.0477	-0.0592	0.0182	-0.0073	-0.0462	0.0165	0.9585
44.6625	53.5035	749.0208	56.5041	-256.387	-25.8566	638.7113	1.7067	-11.0878	0.35798	-4.8484	-1.2906	-12.3658	-0.0592	0.0182	-0.0073	-0.0462	0.0165	0.9585
44.675	54.2482	747.3898	58.4405	-254.77	-26.9165	635.2296	3.096	-8.1018	0.63889	-3.5078	-2.2222	-9.1469	-0.0592	0.0182	-0.0073	-0.0462	0.0165	0.9585
44.6875	54.591	746.1521	60.2593	-253.1782	-28.0329	632.4882	4.7762	-0.011547	0.99576	0.077594	-3.3246	-0.27127	-0.0592	0.0182	-0.0073	-0.0462	0.0165	0.9585
44.7	54.7609	744.5757	61.8399	-251.4135	-29.0384	629.751	6.5249	15.4633	1.4002	6.9042	-4.458	16.8113	-0.0592	0.0182	-0.0073	-0.0462	0.0165	0.9585
44.7125	55.0343	741.6698	63.0012	-249.208	-29.7002	626.0371	7.9705	40.5815	1.769	17.9638	-5.3483	44.6038	-0.0592	0.0182	-0.0073	-0.0462	0.0165	0.9585
44.725	55.6334	736.2013	63.5295	-246.2211	-29.7799	620.1924	8.4477	77.0448	1.9764	33.9965	-5.5535	85.0144	-0.0592	0.0182	-0.0073	-0.0462	0.0165	0.9585
44.7375	56.6796	726.6151	63.1715	-242.009	-29.0391	610.8287	7.0052	125.1376	1.8488	55.1149	-4.4642	138.3829	-0.0592	0.0182	-0.0073	-0.0462	0.0165	0.9585
44.75	58.0629	711.0727	61.702	-236.0186	-27.3413	596.4111	2.6365	182.6275	1.29	80.3246	-1.5366	202.2509	-0.0592	0.0182	-0.0073	-0.0462	0.0165	0.9585
44.7625	59.4278	687.5394	58.9341	-227.6138	-24.6608	575.2817	-4.84	244.0344	0.012415	107.1968	3.5775	270.5296	-0.0592	0.0182	-0.0073	-0.0462	0.0165	0.9585
